
<svg width="144" height="144" viewBox="0 0 144 144" xmlns="http://www.w3.org/2000/svg">
  <defs>
    <!-- Gradiente principal -->
    <linearGradient id="bgGradient" x1="0%" y1="0%" x2="100%" y2="100%">
      <stop offset="0%" style="stop-color:#6366f1;stop-opacity:1" />
      <stop offset="100%" style="stop-color:#4f46e5;stop-opacity:1" />
    </linearGradient>
    
    <!-- Gradiente para elementos internos -->
    <linearGradient id="elementGradient" x1="0%" y1="0%" x2="100%" y2="100%">
      <stop offset="0%" style="stop-color:#ffffff;stop-opacity:0.9" />
      <stop offset="100%" style="stop-color:#ffffff;stop-opacity:0.7" />
    </linearGradient>
    
    <!-- Sombra -->
    <filter id="shadow" x="-50%" y="-50%" width="200%" height="200%">
      <feDropShadow dx="0" dy="2" stdDeviation="2" flood-color="#000000" flood-opacity="0.2"/>
    </filter>
  </defs>
  
  <!-- Background com bordas arredondadas -->
  <rect width="144" height="144" rx="31.68" fill="url(#bgGradient)"/>
  
  <!-- Elementos principais -->
  <g transform="translate(21.599999999999998, 21.599999999999998) scale(1.008)">
    <!-- Balança da justiça -->
    <g filter="url(#shadow)">
      <!-- Base da balança -->
      <rect x="35" y="65" width="30" height="8" rx="4" fill="url(#elementGradient)"/>
      
      <!-- Poste central -->
      <rect x="48" y="45" width="4" height="25" fill="url(#elementGradient)"/>
      
      <!-- Braço da balança -->
      <rect x="30" y="42" width="40" height="3" rx="1.5" fill="url(#elementGradient)"/>
      
      <!-- Pratos da balança -->
      <ellipse cx="32" cy="48" rx="8" ry="2" fill="url(#elementGradient)"/>
      <ellipse cx="68" cy="48" rx="8" ry="2" fill="url(#elementGradient)"/>
      
      <!-- Cordas dos pratos -->
      <line x1="32" y1="42" x2="32" y2="48" stroke="url(#elementGradient)" stroke-width="1.5"/>
      <line x1="68" y1="42" x2="68" y2="48" stroke="url(#elementGradient)" stroke-width="1.5"/>
    </g>
    
    <!-- Símbolo "J" estilizado -->
    <g transform="translate(50, 75)">
      <text x="0" y="0" font-family="Arial, sans-serif" font-size="18" font-weight="bold" 
            text-anchor="middle" fill="white" opacity="0.9">J</text>
    </g>
    
    <!-- Elementos decorativos -->
    <circle cx="20" cy="20" r="3" fill="white" opacity="0.3"/>
    <circle cx="80" cy="25" r="2" fill="white" opacity="0.4"/>
    <circle cx="15" cy="80" r="2.5" fill="white" opacity="0.3"/>
    <circle cx="85" cy="75" r="2" fill="white" opacity="0.4"/>
  </g>
</svg>